ffmpeg version 4.2.7-0ubuntu0.1 Copyright (c) 2000-2022 the FFmpeg developers
  built with gcc 9 (Ubuntu 9.4.0-1ubuntu1~20.04.1)
  configuration: --prefix=/usr --extra-version=0ubuntu0.1 --toolchain=hardened --libdir=/usr/lib/x86_64-linux-gnu --incdir=/usr/include/x86_64-linux-gnu --arch=amd64 --enable-gpl --disable-stripping --enable-avresample --disable-filter=resample --enable-avisynth --enable-gnutls --enable-ladspa --enable-libaom --enable-libass --enable-libbluray --enable-libbs2b --enable-libcaca --enable-libcdio --enable-libcodec2 --enable-libflite --enable-libfontconfig --enable-libfreetype --enable-libfribidi --enable-libgme --enable-libgsm --enable-libjack --enable-libmp3lame --enable-libmysofa --enable-libopenjpeg --enable-libopenmpt --enable-libopus --enable-libpulse --enable-librsvg --enable-librubberband --enable-libshine --enable-libsnappy --enable-libsoxr --enable-libspeex --enable-libssh --enable-libtheora --enable-libtwolame --enable-libvidstab --enable-libvorbis --enable-libvpx --enable-libwavpack --enable-libwebp --enable-libx265 --enable-libxml2 --enable-libxvid --enable-libzmq --enable-libzvbi --enable-lv2 --enable-omx --enable-openal --enable-opencl --enable-opengl --enable-sdl2 --enable-libdc1394 --enable-libdrm --enable-libiec61883 --enable-nvenc --enable-chromaprint --enable-frei0r --enable-libx264 --enable-shared
  libavutil      56. 31.100 / 56. 31.100
  libavcodec     58. 54.100 / 58. 54.100
  libavformat    58. 29.100 / 58. 29.100
  libavdevice    58.  8.100 / 58.  8.100
  libavfilter     7. 57.100 /  7. 57.100
  libavresample   4.  0.  0 /  4.  0.  0
  libswscale      5.  5.100 /  5.  5.100
  libswresample   3.  5.100 /  3.  5.100
  libpostproc    55.  5.100 / 55.  5.100
Routing option strict to both codec and muxer layer
[h264 @ 0x55cd144c3dc0] Reinit context to 1920x1088, pix_fmt: yuv420p
Input #0, mov,mp4,m4a,3gp,3g2,mj2, from '/var/www/html/project/media/video/original/IMG_8319.MOV':
  Metadata:
    major_brand     : qt  
    minor_version   : 0
    compatible_brands: qt  
    creation_time   : 2023-11-03T15:05:27.000000Z
    encoder         : Lavf56.15.102
  Duration: 00:00:29.86, start: 0.000000, bitrate: 14951 kb/s
    Stream #0:0(und): Video: h264 (High), 1 reference frame (avc1 / 0x31637661), yuv420p(tv, bt709, left), 1920x1080 (1920x1088), 14947 kb/s, 29.97 fps, 29.97 tbr, 30k tbn, 60k tbc (default)
    Metadata:
      creation_time   : 2023-11-03T15:05:27.000000Z
      handler_name    : Core Media Video
      encoder         : H.264
Input #1, png_pipe, from '/var/www/html/project/static/images/templates/logo.png':
  Duration: N/A, bitrate: N/A
    Stream #1:0: Video: png, 1 reference frame, rgba(pc), 1920x1080 [SAR 2835:2835 DAR 16:9], 25 tbr, 25 tbn, 25 tbc
[Parsed_scale_0 @ 0x55cd144d62c0] w:1280 h:720 flags:'bilinear' interl:0
[Parsed_scale_2 @ 0x55cd144d4e80] w:1280 h:720 flags:'bilinear' interl:0
Stream mapping:
  Stream #0:0 (h264) -> scale
  Stream #1:0 (png) -> scale
  overlay -> Stream #0:0 (libx264)
Press [q] to stop, [?] for help
[h264 @ 0x55cd144f4180] Reinit context to 1920x1088, pix_fmt: yuv420p
[Parsed_scale_0 @ 0x55cd1536c300] w:1280 h:720 flags:'bilinear' interl:0
[Parsed_scale_2 @ 0x55cd15370fc0] w:1280 h:720 flags:'bilinear' interl:0
[graph 0 input from stream 0:0 @ 0x55cd15372980] w:1920 h:1080 pixfmt:yuv420p tb:1/30000 fr:30000/1001 sar:0/1 sws_param:flags=2
[graph 0 input from stream 1:0 @ 0x55cd15373a40] w:1920 h:1080 pixfmt:rgba tb:1/25 fr:25/1 sar:2835/2835 sws_param:flags=2
[Parsed_scale_0 @ 0x55cd1536c300] w:1920 h:1080 fmt:yuv420p sar:0/1 -> w:1280 h:720 fmt:yuv420p sar:0/1 flags:0x2
[Parsed_setsar_1 @ 0x55cd1536db00] w:1280 h:720 sar:0/1 dar:16/9 -> sar:1/1 dar:16/9
[Parsed_scale_2 @ 0x55cd15370fc0] w:1920 h:1080 fmt:rgba sar:2835/2835 -> w:1280 h:720 fmt:yuva420p sar:1/1 flags:0x2
[Parsed_setsar_3 @ 0x55cd15371540] w:1280 h:720 sar:1/1 dar:16/9 -> sar:1/1 dar:16/9
[Parsed_overlay_4 @ 0x55cd15371bc0] main w:1280 h:720 fmt:yuv420p overlay w:1280 h:720 fmt:yuva420p
[Parsed_overlay_4 @ 0x55cd15371bc0] [framesync @ 0x55cd15371ce8] Selected 1/30000 time base
[Parsed_overlay_4 @ 0x55cd15371bc0] [framesync @ 0x55cd15371ce8] Sync level 2
[libx264 @ 0x55cd144d8c00] using SAR=1/1
[libx264 @ 0x55cd144d8c00] using cpu capabilities: MMX2 SSE2Fast SSSE3 SSE4.2 AVX FMA3 BMI2 AVX2
[libx264 @ 0x55cd144d8c00] profile High, level 3.1
[libx264 @ 0x55cd144d8c00] 264 - core 155 r2917 0a84d98 - H.264/MPEG-4 AVC codec - Copyleft 2003-2018 - http://www.videolan.org/x264.html - options: cabac=1 ref=1 deblock=1:0:0 analyse=0x3:0x113 me=hex subme=2 psy=1 psy_rd=1.00:0.00 mixed_ref=0 me_range=16 chroma_me=1 trellis=0 8x8dct=1 cqm=0 deadzone=21,11 fast_pskip=1 chroma_qp_offset=0 threads=22 lookahead_threads=5 sliced_threads=0 nr=0 decimate=1 interlaced=0 bluray_compat=0 constrained_intra=0 bframes=3 b_pyramid=2 b_adapt=1 b_bias=0 direct=1 weightb=1 open_gop=0 weightp=1 keyint=250 keyint_min=25 scenecut=40 intra_refresh=0 rc_lookahead=10 rc=crf mbtree=1 crf=18.0 qcomp=0.60 qpmin=0 qpmax=69 qpstep=4 ip_ratio=1.40 aq=1:1.00
Output #0, mp4, to '/var/www/html/project/media/video/watermarks/IMG_8319.mp4':
  Metadata:
    major_brand     : qt  
    minor_version   : 0
    compatible_brands: qt  
    encoder         : Lavf58.29.100
    Stream #0:0: Video: h264 (libx264), 1 reference frame (avc1 / 0x31637661), yuv420p, 1280x720 [SAR 1:1 DAR 16:9], q=-1--1, 29.97 fps, 30k tbn, 29.97 tbc (default)
    Metadata:
      encoder         : Lavc58.54.100 libx264
    Side data:
      cpb: bitrate max/min/avg: 0/0/0 buffer size: 0 vbv_delay: -1
[Parsed_overlay_4 @ 0x55cd15371bc0] [framesync @ 0x55cd15371ce8] Sync level 0
No more output streams to write to, finishing.
frame=  895 fps= 69 q=-1.0 Lsize=   13637kB time=00:00:29.76 bitrate=3753.5kbits/s speed=2.29x    
[AVIOContext @ 0x55cd144c20c0] Statistics: 0 seeks, 26 writeouts
video:13626kB audio:0kB subtitle:0kB other streams:0kB global headers:0kB muxing overhead: 0.084386%
Input file #0 (/var/www/html/project/media/video/original/IMG_8319.MOV):
  Input stream #0:0 (video): 895 packets read (55800298 bytes); 895 frames decoded; 
  Total: 895 packets (55800298 bytes) demuxed
Input file #1 (/var/www/html/project/static/images/templates/logo.png):
  Input stream #1:0 (video): 1 packets read (111578 bytes); 1 frames decoded; 
  Total: 1 packets (111578 bytes) demuxed
Output file #0 (/var/www/html/project/media/video/watermarks/IMG_8319.mp4):
  Output stream #0:0 (video): 895 frames encoded; 895 packets muxed (13952530 bytes); 
  Total: 895 packets (13952530 bytes) muxed
[AVIOContext @ 0x55cd144daa40] Statistics: 2 seeks, 57 writeouts
[libx264 @ 0x55cd144d8c00] frame I:4     Avg QP:17.45  size:205154
[libx264 @ 0x55cd144d8c00] frame P:225   Avg QP:20.27  size: 44103
[libx264 @ 0x55cd144d8c00] frame B:666   Avg QP:23.71  size:  4817
[libx264 @ 0x55cd144d8c00] consecutive B-frames:  0.7%  0.2%  0.3% 98.8%
[libx264 @ 0x55cd144d8c00] mb I  I16..4:  2.0%  5.6% 92.3%
[libx264 @ 0x55cd144d8c00] mb P  I16..4:  1.5%  3.0%  1.5%  P16..4: 46.5% 26.0% 18.1%  0.0%  0.0%    skip: 3.5%
[libx264 @ 0x55cd144d8c00] mb B  I16..4:  0.2%  0.1%  0.0%  B16..8: 18.9%  6.0%  0.9%  direct: 8.7%  skip:65.3%  L0:20.2% L1:35.5% BI:44.3%
[libx264 @ 0x55cd144d8c00] 8x8 transform intra:38.7% inter:36.8%
[libx264 @ 0x55cd144d8c00] coded y,uvDC,uvAC intra: 75.8% 51.4% 26.3% inter: 18.4% 11.6% 1.2%
[libx264 @ 0x55cd144d8c00] i16 v,h,dc,p: 18% 56% 16% 10%
[libx264 @ 0x55cd144d8c00] i8 v,h,dc,ddl,ddr,vr,hd,vl,hu:  7% 46% 17%  3%  5%  3%  8%  3%  7%
[libx264 @ 0x55cd144d8c00] i4 v,h,dc,ddl,ddr,vr,hd,vl,hu: 11% 34% 11%  6%  8%  6% 10%  6%  9%
[libx264 @ 0x55cd144d8c00] i8c dc,h,v,p: 53% 31% 11%  5%
[libx264 @ 0x55cd144d8c00] Weighted P-Frames: Y:22.7% UV:0.0%
[libx264 @ 0x55cd144d8c00] kb/s:3737.54
[AVIOContext @ 0x55cd144cb000] Statistics: 55846720 bytes read, 2 seeks
[AVIOContext @ 0x55cd144d72c0] Statistics: 111578 bytes read, 0 seeks
